<mxfile host="app.diagrams.net" agent="Mozilla/5.0 (Windows NT 10.0; Win64; x64) AppleWebKit/537.36 (KHTML, like Gecko) Chrome/128.0.0.0 Safari/537.36" version="24.7.14">
  <diagram name="페이지-1" id="82ipbskVhti5oqsuBWfR">
    <mxGraphModel dx="606" dy="950" grid="1" gridSize="10" guides="1" tooltips="1" connect="1" arrows="1" fold="1" page="1" pageScale="1" pageWidth="827" pageHeight="1169" math="0" shadow="0">
      <root>
        <mxCell id="0" />
        <mxCell id="1" parent="0" />
        <mxCell id="CqetoyUC_SjuyRSoKMBc-1" value="Actor" style="shape=umlActor;verticalLabelPosition=bottom;verticalAlign=top;html=1;" vertex="1" parent="1">
          <mxGeometry x="40" y="360" width="30" height="60" as="geometry" />
        </mxCell>
        <mxCell id="CqetoyUC_SjuyRSoKMBc-4" value="게시판 서비스" style="shape=umlFrame;whiteSpace=wrap;html=1;pointerEvents=0;width=120;height=20;" vertex="1" parent="1">
          <mxGeometry x="119" y="150" width="590" height="540" as="geometry" />
        </mxCell>
        <mxCell id="CqetoyUC_SjuyRSoKMBc-6" value="회원 가입" style="rounded=1;whiteSpace=wrap;html=1;arcSize=40;fontColor=#000000;fillColor=#ffffc0;strokeColor=#ff0000;" vertex="1" parent="1">
          <mxGeometry x="170" y="240" width="120" height="40" as="geometry" />
        </mxCell>
        <mxCell id="CqetoyUC_SjuyRSoKMBc-20" style="rounded=0;orthogonalLoop=1;jettySize=auto;html=1;exitX=0;exitY=0.5;exitDx=0;exitDy=0;endArrow=none;endFill=0;" edge="1" parent="1" source="CqetoyUC_SjuyRSoKMBc-8">
          <mxGeometry relative="1" as="geometry">
            <mxPoint x="70" y="380" as="targetPoint" />
          </mxGeometry>
        </mxCell>
        <mxCell id="CqetoyUC_SjuyRSoKMBc-24" style="rounded=0;orthogonalLoop=1;jettySize=auto;html=1;exitX=1;exitY=0.5;exitDx=0;exitDy=0;entryX=0.5;entryY=1;entryDx=0;entryDy=0;dashed=1;" edge="1" parent="1" source="CqetoyUC_SjuyRSoKMBc-8" target="CqetoyUC_SjuyRSoKMBc-10">
          <mxGeometry relative="1" as="geometry" />
        </mxCell>
        <mxCell id="CqetoyUC_SjuyRSoKMBc-8" value="게시판 보기" style="rounded=1;whiteSpace=wrap;html=1;arcSize=40;fontColor=#000000;fillColor=#ffffc0;strokeColor=#ff0000;" vertex="1" parent="1">
          <mxGeometry x="170" y="370" width="120" height="40" as="geometry" />
        </mxCell>
        <mxCell id="CqetoyUC_SjuyRSoKMBc-25" style="rounded=0;orthogonalLoop=1;jettySize=auto;html=1;exitX=1;exitY=0.5;exitDx=0;exitDy=0;dashed=1;" edge="1" parent="1" source="CqetoyUC_SjuyRSoKMBc-9">
          <mxGeometry relative="1" as="geometry">
            <mxPoint x="320" y="210" as="targetPoint" />
          </mxGeometry>
        </mxCell>
        <mxCell id="CqetoyUC_SjuyRSoKMBc-9" value="게시글 보기" style="rounded=1;whiteSpace=wrap;html=1;arcSize=40;fontColor=#000000;fillColor=#ffffc0;strokeColor=#ff0000;" vertex="1" parent="1">
          <mxGeometry x="170" y="560" width="120" height="40" as="geometry" />
        </mxCell>
        <mxCell id="CqetoyUC_SjuyRSoKMBc-18" style="rounded=0;orthogonalLoop=1;jettySize=auto;html=1;exitX=0;exitY=0.5;exitDx=0;exitDy=0;endArrow=none;endFill=0;" edge="1" parent="1" source="CqetoyUC_SjuyRSoKMBc-10">
          <mxGeometry relative="1" as="geometry">
            <mxPoint x="70" y="380" as="targetPoint" />
            <Array as="points">
              <mxPoint x="140" y="240" />
            </Array>
          </mxGeometry>
        </mxCell>
        <mxCell id="CqetoyUC_SjuyRSoKMBc-21" style="rounded=0;orthogonalLoop=1;jettySize=auto;html=1;exitX=1;exitY=0.5;exitDx=0;exitDy=0;entryX=0;entryY=0.5;entryDx=0;entryDy=0;endArrow=classic;endFill=1;dashed=1;" edge="1" parent="1" source="CqetoyUC_SjuyRSoKMBc-10" target="CqetoyUC_SjuyRSoKMBc-11">
          <mxGeometry relative="1" as="geometry" />
        </mxCell>
        <mxCell id="CqetoyUC_SjuyRSoKMBc-23" value="&amp;lt;&amp;lt;include&amp;gt;&amp;gt;" style="edgeLabel;html=1;align=center;verticalAlign=middle;resizable=0;points=[];" vertex="1" connectable="0" parent="CqetoyUC_SjuyRSoKMBc-21">
          <mxGeometry x="0.2211" y="-3" relative="1" as="geometry">
            <mxPoint as="offset" />
          </mxGeometry>
        </mxCell>
        <mxCell id="CqetoyUC_SjuyRSoKMBc-10" value="회원 로그인" style="rounded=1;whiteSpace=wrap;html=1;arcSize=40;fontColor=#000000;fillColor=#ffffc0;strokeColor=#ff0000;" vertex="1" parent="1">
          <mxGeometry x="260" y="170" width="120" height="40" as="geometry" />
        </mxCell>
        <mxCell id="CqetoyUC_SjuyRSoKMBc-32" style="rounded=0;orthogonalLoop=1;jettySize=auto;html=1;exitX=1;exitY=0.5;exitDx=0;exitDy=0;entryX=0;entryY=0.5;entryDx=0;entryDy=0;endArrow=none;endFill=0;" edge="1" parent="1" source="CqetoyUC_SjuyRSoKMBc-11" target="CqetoyUC_SjuyRSoKMBc-30">
          <mxGeometry relative="1" as="geometry" />
        </mxCell>
        <mxCell id="CqetoyUC_SjuyRSoKMBc-11" value="인증" style="rounded=1;whiteSpace=wrap;html=1;arcSize=40;fontColor=#000000;fillColor=#ffffc0;strokeColor=#ff0000;" vertex="1" parent="1">
          <mxGeometry x="570" y="170" width="120" height="40" as="geometry" />
        </mxCell>
        <mxCell id="CqetoyUC_SjuyRSoKMBc-22" value="&amp;lt;&amp;lt;extend&amp;gt;&amp;gt;" style="rounded=0;orthogonalLoop=1;jettySize=auto;html=1;exitX=0;exitY=0.5;exitDx=0;exitDy=0;entryX=1;entryY=0.5;entryDx=0;entryDy=0;endArrow=classic;endFill=1;dashed=1;" edge="1" parent="1" source="CqetoyUC_SjuyRSoKMBc-12" target="CqetoyUC_SjuyRSoKMBc-10">
          <mxGeometry relative="1" as="geometry" />
        </mxCell>
        <mxCell id="CqetoyUC_SjuyRSoKMBc-12" value="로그인 실패" style="rounded=1;whiteSpace=wrap;html=1;arcSize=40;fontColor=#000000;fillColor=#ffffc0;strokeColor=#ff0000;" vertex="1" parent="1">
          <mxGeometry x="570" y="240" width="120" height="40" as="geometry" />
        </mxCell>
        <mxCell id="CqetoyUC_SjuyRSoKMBc-26" style="rounded=0;orthogonalLoop=1;jettySize=auto;html=1;exitX=0;exitY=0.5;exitDx=0;exitDy=0;dashed=1;entryX=1;entryY=0.5;entryDx=0;entryDy=0;" edge="1" parent="1" source="CqetoyUC_SjuyRSoKMBc-13" target="CqetoyUC_SjuyRSoKMBc-8">
          <mxGeometry relative="1" as="geometry" />
        </mxCell>
        <mxCell id="CqetoyUC_SjuyRSoKMBc-13" value="게시판 정렬" style="rounded=1;whiteSpace=wrap;html=1;arcSize=40;fontColor=#000000;fillColor=#ffffc0;strokeColor=#ff0000;" vertex="1" parent="1">
          <mxGeometry x="360" y="350" width="120" height="40" as="geometry" />
        </mxCell>
        <mxCell id="CqetoyUC_SjuyRSoKMBc-27" style="rounded=0;orthogonalLoop=1;jettySize=auto;html=1;exitX=0;exitY=0.5;exitDx=0;exitDy=0;dashed=1;" edge="1" parent="1" source="CqetoyUC_SjuyRSoKMBc-14">
          <mxGeometry relative="1" as="geometry">
            <mxPoint x="290" y="390" as="targetPoint" />
          </mxGeometry>
        </mxCell>
        <mxCell id="CqetoyUC_SjuyRSoKMBc-14" value="게시판 검색" style="rounded=1;whiteSpace=wrap;html=1;arcSize=40;fontColor=#000000;fillColor=#ffffc0;strokeColor=#ff0000;" vertex="1" parent="1">
          <mxGeometry x="360" y="410" width="120" height="40" as="geometry" />
        </mxCell>
        <mxCell id="CqetoyUC_SjuyRSoKMBc-28" style="rounded=0;orthogonalLoop=1;jettySize=auto;html=1;exitX=0;exitY=0.5;exitDx=0;exitDy=0;entryX=1;entryY=0.5;entryDx=0;entryDy=0;dashed=1;" edge="1" parent="1" source="CqetoyUC_SjuyRSoKMBc-15" target="CqetoyUC_SjuyRSoKMBc-9">
          <mxGeometry relative="1" as="geometry" />
        </mxCell>
        <mxCell id="CqetoyUC_SjuyRSoKMBc-35" style="rounded=0;orthogonalLoop=1;jettySize=auto;html=1;exitX=1;exitY=0.5;exitDx=0;exitDy=0;entryX=0;entryY=0.5;entryDx=0;entryDy=0;endArrow=none;endFill=0;" edge="1" parent="1" source="CqetoyUC_SjuyRSoKMBc-15" target="CqetoyUC_SjuyRSoKMBc-30">
          <mxGeometry relative="1" as="geometry">
            <mxPoint x="790" y="370" as="targetPoint" />
          </mxGeometry>
        </mxCell>
        <mxCell id="CqetoyUC_SjuyRSoKMBc-15" value="게시글 쓰기,&amp;nbsp;&lt;div&gt;수정, 삭제&lt;/div&gt;" style="rounded=1;whiteSpace=wrap;html=1;arcSize=40;fontColor=#000000;fillColor=#ffffc0;strokeColor=#ff0000;" vertex="1" parent="1">
          <mxGeometry x="360" y="535" width="120" height="40" as="geometry" />
        </mxCell>
        <mxCell id="CqetoyUC_SjuyRSoKMBc-29" style="rounded=0;orthogonalLoop=1;jettySize=auto;html=1;exitX=0;exitY=0.5;exitDx=0;exitDy=0;entryX=1;entryY=0.5;entryDx=0;entryDy=0;dashed=1;" edge="1" parent="1" source="CqetoyUC_SjuyRSoKMBc-16" target="CqetoyUC_SjuyRSoKMBc-9">
          <mxGeometry relative="1" as="geometry" />
        </mxCell>
        <mxCell id="CqetoyUC_SjuyRSoKMBc-36" style="rounded=0;orthogonalLoop=1;jettySize=auto;html=1;exitX=1;exitY=0.5;exitDx=0;exitDy=0;entryX=0;entryY=0.5;entryDx=0;entryDy=0;endArrow=none;endFill=0;" edge="1" parent="1" source="CqetoyUC_SjuyRSoKMBc-16" target="CqetoyUC_SjuyRSoKMBc-30">
          <mxGeometry relative="1" as="geometry" />
        </mxCell>
        <mxCell id="CqetoyUC_SjuyRSoKMBc-16" value="댓글 보기, 쓰기&lt;div&gt;수정, 삭제&lt;/div&gt;" style="rounded=1;whiteSpace=wrap;html=1;arcSize=40;fontColor=#000000;fillColor=#ffffc0;strokeColor=#ff0000;" vertex="1" parent="1">
          <mxGeometry x="360" y="585" width="120" height="40" as="geometry" />
        </mxCell>
        <mxCell id="CqetoyUC_SjuyRSoKMBc-17" style="rounded=0;orthogonalLoop=1;jettySize=auto;html=1;exitX=0;exitY=0.5;exitDx=0;exitDy=0;entryX=1;entryY=0.3333333333333333;entryDx=0;entryDy=0;entryPerimeter=0;endArrow=none;endFill=0;" edge="1" parent="1" source="CqetoyUC_SjuyRSoKMBc-6" target="CqetoyUC_SjuyRSoKMBc-1">
          <mxGeometry relative="1" as="geometry" />
        </mxCell>
        <mxCell id="CqetoyUC_SjuyRSoKMBc-19" style="rounded=0;orthogonalLoop=1;jettySize=auto;html=1;exitX=0;exitY=0.5;exitDx=0;exitDy=0;entryX=1;entryY=0.3333333333333333;entryDx=0;entryDy=0;entryPerimeter=0;endArrow=none;endFill=0;" edge="1" parent="1" source="CqetoyUC_SjuyRSoKMBc-9" target="CqetoyUC_SjuyRSoKMBc-1">
          <mxGeometry relative="1" as="geometry" />
        </mxCell>
        <mxCell id="CqetoyUC_SjuyRSoKMBc-33" style="rounded=0;orthogonalLoop=1;jettySize=auto;html=1;exitX=0;exitY=0.5;exitDx=0;exitDy=0;entryX=1;entryY=0.5;entryDx=0;entryDy=0;" edge="1" parent="1" source="CqetoyUC_SjuyRSoKMBc-30" target="CqetoyUC_SjuyRSoKMBc-8">
          <mxGeometry relative="1" as="geometry">
            <mxPoint x="300" y="390" as="targetPoint" />
            <Array as="points">
              <mxPoint x="360" y="310" />
            </Array>
          </mxGeometry>
        </mxCell>
        <mxCell id="CqetoyUC_SjuyRSoKMBc-34" style="rounded=0;orthogonalLoop=1;jettySize=auto;html=1;exitX=0;exitY=0.5;exitDx=0;exitDy=0;entryX=1;entryY=0.5;entryDx=0;entryDy=0;endArrow=none;endFill=0;" edge="1" parent="1" source="CqetoyUC_SjuyRSoKMBc-30" target="CqetoyUC_SjuyRSoKMBc-9">
          <mxGeometry relative="1" as="geometry">
            <Array as="points">
              <mxPoint x="360" y="480" />
            </Array>
          </mxGeometry>
        </mxCell>
        <mxCell id="CqetoyUC_SjuyRSoKMBc-30" value="DB" style="html=1;dropTarget=0;whiteSpace=wrap;" vertex="1" parent="1">
          <mxGeometry x="790" y="330" width="80" height="90" as="geometry" />
        </mxCell>
      </root>
    </mxGraphModel>
  </diagram>
</mxfile>
